<?xml version="1.0" standalone="no"?>
<!DOCTYPE svg PUBLIC "-//W3C//DTD SVG 20010904//EN"
 "http://www.w3.org/TR/2001/REC-SVG-20010904/DTD/svg10.dtd">
<svg version="1.0" xmlns="http://www.w3.org/2000/svg"
 width="200.000000pt" height="212.000000pt" viewBox="0 0 200.000000 212.000000"
 preserveAspectRatio="xMidYMid meet">

<g transform="translate(0.000000,212.000000) scale(0.100000,-0.100000)"
fill="#008080" stroke="none">
<path d="M780 1805 c-170 -32 -359 -104 -487 -184 l-33 -21 0 -124 c0 -410
165 -771 465 -1016 87 -71 253 -180 275 -180 23 0 212 126 295 196 288 245
445 599 445 1006 l0 118 -38 24 c-112 70 -280 138 -428 171 -99 23 -396 29
-494 10z m447 -61 c45 -8 117 -26 160 -40 88 -28 275 -117 294 -140 16 -20 -3
-260 -30 -385 -73 -327 -259 -585 -563 -783 l-88 -57 -72 47 c-114 73 -187
132 -272 219 -212 218 -319 481 -342 847 l-7 106 40 25 c245 154 574 215 880
161z"/>
<path d="M750 1652 c-25 -6 4 -10 100 -15 279 -14 551 -89 609 -167 12 -17 30
-30 40 -30 25 0 53 34 49 61 -3 25 -15 32 -73 47 -22 5 -73 22 -113 36 -129
45 -254 66 -422 71 -85 2 -171 1 -190 -3z"/>
<path d="M655 1589 c22 -4 57 -8 78 -8 56 -1 221 -37 313 -67 138 -46 259
-114 269 -151 6 -26 50 -41 74 -26 9 6 17 24 19 41 3 27 -1 34 -25 43 -15 6
-68 31 -118 55 -167 79 -367 125 -544 123 -84 -1 -98 -3 -66 -10z"/>
<path d="M525 1544 c209 -23 419 -98 578 -206 32 -22 62 -50 67 -63 5 -13 19
-29 30 -35 29 -15 70 11 70 45 0 24 -32 55 -57 55 -7 0 -39 17 -70 37 -78 50
-216 109 -327 139 -67 18 -123 26 -211 29 -66 2 -102 1 -80 -1z"/>
<path d="M965 1265 c-31 -30 -32 -68 -4 -96 l21 -21 -21 -54 -20 -54 69 0 c39
0 70 2 70 4 0 2 -9 25 -20 51 l-20 47 20 25 c26 34 26 77 -2 103 -29 27 -64
25 -93 -5z"/>
</g>
</svg>
