<svg width="221.4" height="88.59317234407784" viewBox="0 0 230 92.03446088138168" class="looka-1j8o68f"><defs id="SvgjsDefs1204"></defs><g id="SvgjsG1205" featurekey="HKaMnE-0" transform="matrix(0.6,0,0,0.6,6,28)" fill="#0d7377"><g xmlns="http://www.w3.org/2000/svg"><path d="M57.97,17.951v16.066H41.92V17.951H57.97z M61.725,14.191h-23.56v23.586h23.56V14.191z M57.97,48.155v19.826   c0,8.334-5.366,11.198-7.731,12.034c-0.047,0.017-0.093,0.033-0.141,0.05c0.147-0.148,0.29-0.301,0.43-0.457   c4.487-7.052,2.757-15.387,2.757-15.387H41.92V48.155H57.97z M61.725,44.396h-23.56v23.586h11.759   c0.607,5.462-0.769,12.44-11.759,12.44c0,3.874,0,5,0,5.008c22.857,0,23.56-11.353,23.56-17.448V44.396z M32.092,100h-6.913   c-8.111,0-13.849-2.404-17.054-7.146c-2.57-3.804-2.868-8.221-2.868-11.213V61.085c-0.015-0.171-0.105-3.124-3.379-3.124H0V42.039   h1.878c3.899,0,3.379-3.204,3.379-3.204l0-20.476c0-2.992,0.298-7.409,2.868-11.212C11.33,2.404,17.068,0,25.179,0h6.914v15.919   h-6.914c-1.651,0-4.019,0.397-4.019,2.671c0,0.075-0.001,20.21-0.001,20.21c0.005,0.646-0.047,6.209-3.21,11.199   c3.163,4.99,3.215,10.554,3.209,11.215c0,0,0.003,20.3,0.003,20.346c0,2.559,2.366,2.52,4.018,2.52h6.913V100z M9.012,61.175   l0,20.466c0,2.709,0.252,6.191,2.223,9.105c2.464,3.646,7.155,5.494,13.944,5.494h3.158v-8.4h-3.158   c-2.713,0-7.773-0.823-7.773-6.288c-0.002,0-0.002-0.032-0.002-0.032l0-0.088V61.199C17.403,54.055,13.32,50,13.32,50   s3.797-4.167,4.083-11.184V18.445c-0.008-2.11,0.886-3.458,1.638-4.218c1.359-1.372,3.424-2.067,6.137-2.067h3.158v-8.4h-3.158   c-6.789,0-11.48,1.848-13.944,5.494c-1.97,2.915-2.223,6.397-2.223,9.105l0.001,20.584c0,0.02-0.343,6.648-5.258,6.648v8.816   c5.307,1.29,5.258,6.629,5.258,6.656L9.012,61.175z M67.908,100V84.08h6.914c1.65,0,4.018,0.039,4.018-2.52   c0-0.046,0.002-20.346,0.002-20.346C78.836,60.554,78.889,54.99,82.051,50c-3.162-4.99-3.215-10.553-3.209-11.199   c0,0-0.002-20.135-0.002-20.21c0-2.274-2.367-2.671-4.019-2.671h-6.913V0h6.913c8.11,0,13.849,2.404,17.054,7.147   c2.57,3.803,2.868,8.22,2.868,11.212v20.476c0,0-0.521,3.204,3.38,3.204H100v15.922h-1.877c-3.275,0-3.365,2.953-3.38,3.124   l0.001,20.556c0,2.992-0.298,7.409-2.868,11.213C88.671,97.596,82.934,100,74.822,100H67.908z M90.988,61.175l-0.001-0.11   c-0.001-0.027-0.05-5.366,5.257-6.656v-8.816c-4.914,0-5.258-6.629-5.258-6.648l0.001-20.584c0-2.708-0.253-6.191-2.222-9.105   C86.301,5.608,81.609,3.76,74.821,3.76h-3.158v8.4h3.158c2.712,0,4.777,0.695,6.137,2.067c0.753,0.76,1.646,2.107,1.636,4.218   c0.003,0,0.003,20.371,0.003,20.371C82.883,45.833,86.68,50,86.68,50s-4.082,4.055-4.082,11.199v20.232v0.088v0.032   c-0.003,5.465-5.063,6.288-7.775,6.288h-3.158v8.4h3.158c6.788,0,11.479-1.848,13.943-5.494c1.97-2.914,2.223-6.396,2.223-9.105   V61.175z"></path></g></g><g id="SvgjsG1206" featurekey="J3GnXt-0" transform="matrix(4.168982821245383,0,0,4.168982821245383,76.081161873256,7.154055565021025)" fill="#323232"><path d="M8.32 5.48 c1 0 1.9367 0.18664 2.81 0.55998 s1.59 0.92 2.15 1.64 l-1.6 1.22 c-0.86666 -1.08 -2.0066 -1.62 -3.42 -1.62 c-1.5333 0 -2.7966 0.54666 -3.79 1.64 s-1.49 2.4666 -1.49 4.12 c0 1.6 0.49 2.92 1.47 3.96 s2.25 1.56 3.81 1.56 s2.7934 -0.63334 3.7 -1.9 l1.62 1.22 c-0.56 0.74666 -1.3067 1.3467 -2.24 1.8 s-1.9733 0.68 -3.12 0.68 c-1.36 0 -2.5934 -0.33 -3.7 -0.99 s-1.98 -1.5667 -2.62 -2.72 s-0.96 -2.3634 -0.96 -3.63 c0 -2.1866 0.68666 -3.99 2.06 -5.41 s3.1466 -2.13 5.32 -2.13 z M16.18 5.84 l4.16 11.52 l0.04 0 l4.32 -11.52 l2.1 0 l-5.58 14.16 l-1.8 0 l-5.46 -14.16 l2.22 0 z M30.42 5.84 l0 12.36 l6.5 0 l0 1.8 l-8.42 0 l0 -14.16 l1.92 0 z"></path></g></svg>